<svg width="30" height="30" viewBox="0 0 30 30" fill="none" xmlns="http://www.w3.org/2000/svg">
<g clip-path="url(#clip0_1_3360)">
<path d="M0 0H30V30H0V0Z" fill="#2B2F3C"/>
<path d="M21.9945 13.1668C22.2871 11.2109 20.7979 10.1595 18.7617 9.45809L19.4221 6.80854L17.8093 6.40664L17.1663 8.98629C16.7423 8.88064 16.3069 8.78098 15.8742 8.68225L16.5218 6.08555L14.91 5.68359L14.2489 8.33221C13.898 8.25229 13.5535 8.1733 13.2192 8.09016L13.2209 8.08184L10.9968 7.52648L10.5677 9.24902C10.5677 9.24902 11.7643 9.5233 11.7391 9.54029C12.3923 9.70336 12.5103 10.1356 12.4906 10.4783L11.7381 13.4967C11.7832 13.5082 11.8416 13.5246 11.9058 13.5504C11.8521 13.537 11.7946 13.5223 11.7354 13.5082L10.6808 17.7364C10.6008 17.9348 10.3982 18.2325 9.94166 18.1195C9.95772 18.1429 8.76938 17.8269 8.76938 17.8269L7.96875 19.673L10.0675 20.1963C10.458 20.2941 10.8406 20.3965 11.2172 20.4929L10.5499 23.1728L12.1608 23.5748L12.8217 20.9234C13.2489 21.0392 13.6774 21.1504 14.107 21.2569L13.4483 23.8958L15.0611 24.2978L15.7285 21.623C18.4787 22.1434 20.5465 21.9335 21.4171 19.4462C22.1185 17.4434 21.3821 16.2881 19.9352 15.5348C20.989 15.2918 21.7828 14.5986 21.9945 13.1668ZM18.3096 18.334C17.8112 20.3368 14.4391 19.2541 13.3459 18.9826L14.2315 15.4324C15.3247 15.7052 18.8304 16.2454 18.3096 18.334ZM18.8085 13.1379C18.3537 14.9597 15.5471 14.0341 14.6367 13.8071L15.4396 10.5871C16.35 10.8141 19.282 11.2376 18.8085 13.1379Z" fill="#96A0AF"/>
<path d="M0 0H30V30H0V0Z" fill="#FF9E08"/>
<path d="M21.9945 13.1668C22.2871 11.2109 20.7979 10.1595 18.7617 9.45809L19.4221 6.80854L17.8093 6.40664L17.1663 8.98629C16.7423 8.88064 16.3069 8.78098 15.8742 8.68225L16.5218 6.08555L14.91 5.68359L14.2489 8.33221C13.898 8.25229 13.5535 8.1733 13.2192 8.09016L13.2209 8.08184L10.9968 7.52648L10.5677 9.24902C10.5677 9.24902 11.7643 9.5233 11.7391 9.54029C12.3923 9.70336 12.5103 10.1356 12.4906 10.4783L11.7381 13.4967C11.7832 13.5082 11.8416 13.5246 11.9058 13.5504C11.8521 13.537 11.7946 13.5223 11.7354 13.5082L10.6808 17.7364C10.6008 17.9348 10.3982 18.2325 9.94166 18.1195C9.95772 18.1429 8.76938 17.8269 8.76938 17.8269L7.96875 19.673L10.0675 20.1963C10.458 20.2941 10.8406 20.3965 11.2172 20.4929L10.5499 23.1728L12.1608 23.5748L12.8217 20.9234C13.2489 21.0392 13.6774 21.1504 14.107 21.2569L13.4483 23.8958L15.0611 24.2978L15.7285 21.623C18.4787 22.1434 20.5465 21.9335 21.4171 19.4462C22.1185 17.4434 21.3821 16.2881 19.9352 15.5348C20.989 15.2918 21.7828 14.5986 21.9945 13.1668ZM18.3096 18.334C17.8112 20.3368 14.4391 19.2541 13.3459 18.9826L14.2315 15.4324C15.3247 15.7052 18.8304 16.2454 18.3096 18.334ZM18.8085 13.1379C18.3537 14.9597 15.5471 14.0341 14.6367 13.8071L15.4396 10.5871C16.35 10.8141 19.282 11.2376 18.8085 13.1379Z" fill="white"/>
</g>
<defs>
<clipPath id="clip0_1_3360">
<rect width="30" height="30" rx="15" fill="white"/>
</clipPath>
</defs>
</svg>
