<svg width="30" height="30" viewBox="0 0 30 30" fill="none" xmlns="http://www.w3.org/2000/svg">
<g clip-path="url(#clip0_1_843)">
<path d="M0 0H30V30H0V0Z" fill="#2B2F3C"/>
<path d="M16.7205 12.4007V10.2979H21.5326V7.08984H8.42748V10.2979H13.242V12.4007C9.329 12.5799 6.38672 13.355 6.38672 14.2835C6.38672 15.2119 9.33018 15.987 13.242 16.1673V22.9102H16.7228V16.1661C20.6276 15.987 23.5628 15.2119 23.5628 14.2846C23.5628 13.3573 20.6276 12.5834 16.7228 12.4031M16.7228 15.596V15.5936C16.6245 15.6006 16.1198 15.6311 14.9958 15.6311C14.0978 15.6311 13.4656 15.6053 13.2431 15.5936V15.596C9.7868 15.4437 7.20633 14.8407 7.20633 14.1207C7.20633 13.4006 9.7868 12.8 13.2431 12.6455V14.9965C13.4691 15.0117 14.1166 15.0503 15.0111 15.0503C16.0836 15.0503 16.6233 15.0059 16.7228 14.9965V12.6466C20.1721 12.8 22.7468 13.403 22.7468 14.1207C22.7468 14.8372 20.171 15.4402 16.7228 15.5948" fill="#96A0AF"/>
<path d="M0 0H30V30H0V0Z" fill="#1D2337"/>
<path d="M16.7205 12.4007V10.2979H21.5326V7.08984H8.42748V10.2979H13.242V12.4007C9.329 12.5799 6.38672 13.355 6.38672 14.2835C6.38672 15.2119 9.33018 15.987 13.242 16.1673V22.9102H16.7228V16.1661C20.6276 15.987 23.5628 15.2119 23.5628 14.2846C23.5628 13.3573 20.6276 12.5834 16.7228 12.4031M16.7228 15.596V15.5936C16.6245 15.6006 16.1198 15.6311 14.9958 15.6311C14.0978 15.6311 13.4656 15.6053 13.2431 15.5936V15.596C9.7868 15.4437 7.20633 14.8407 7.20633 14.1207C7.20633 13.4006 9.7868 12.8 13.2431 12.6455V14.9965C13.4691 15.0117 14.1166 15.0503 15.0111 15.0503C16.0836 15.0503 16.6233 15.0059 16.7228 14.9965V12.6466C20.1721 12.8 22.7468 13.403 22.7468 14.1207C22.7468 14.8372 20.171 15.4402 16.7228 15.5948" fill="#5B627B"/>
</g>
<defs>
<clipPath id="clip0_1_843">
<rect width="30" height="30" rx="15" fill="white"/>
</clipPath>
</defs>
</svg>
