<svg width="30" height="30" viewBox="0 0 30 30" fill="none" xmlns="http://www.w3.org/2000/svg">
<g clip-path="url(#clip0_1_3368)">
<path d="M0 0H30V30H0V0Z" fill="#2B2F3C"/>
<path fill-rule="evenodd" clip-rule="evenodd" d="M14.9706 15.8795L13.7098 20.1272H20.4489C20.6532 20.1272 20.8005 20.2737 20.8005 20.4788V20.5667L20.2146 22.5885C20.1879 22.6836 20.1301 22.767 20.0504 22.8252C19.9707 22.8835 19.8737 22.9133 19.775 22.9099H9.46289L11.1908 17.0222L9.25781 17.6082L9.69732 16.2604L11.6303 15.6744L14.0623 7.41243C14.0887 7.31717 14.1464 7.23357 14.2262 7.17511C14.3059 7.11664 14.403 7.0867 14.5018 7.09011H17.1087C17.3138 7.09011 17.4603 7.23665 17.4603 7.44173V7.53055L15.4092 14.5023L17.343 13.9163L16.9328 15.3228L14.9706 15.8795Z" fill="#96A0AF"/>
<path d="M0 0H30V30H0V0Z" fill="#A5A5A5"/>
<path fill-rule="evenodd" clip-rule="evenodd" d="M14.9706 15.8795L13.7098 20.1272H20.4489C20.6532 20.1272 20.8005 20.2737 20.8005 20.4788V20.5667L20.2146 22.5885C20.1879 22.6836 20.1301 22.767 20.0504 22.8252C19.9707 22.8835 19.8737 22.9133 19.775 22.9099H9.46289L11.1908 17.0222L9.25781 17.6082L9.69732 16.2604L11.6303 15.6744L14.0623 7.41243C14.0887 7.31717 14.1464 7.23357 14.2262 7.17511C14.3059 7.11664 14.403 7.0867 14.5018 7.09011H17.1087C17.3138 7.09011 17.4603 7.23665 17.4603 7.44173V7.53055L15.4092 14.5023L17.343 13.9163L16.9328 15.3228L14.9706 15.8795Z" fill="white"/>
</g>
<defs>
<clipPath id="clip0_1_3368">
<rect width="30" height="30" rx="15" fill="white"/>
</clipPath>
</defs>
</svg>
