<svg width="30" height="30" viewBox="0 0 30 30" fill="none" xmlns="http://www.w3.org/2000/svg">
<g clip-path="url(#clip0_1_824)">
<path d="M0 0H30V30H0V0Z" fill="#2B2F3C"/>
<path d="M9.14062 15.1604L14.9767 5.44922V12.4992L9.14062 15.1604Z" fill="#96A0AF"/>
<path opacity="0.6" d="M14.9766 12.4992V5.44922L20.8126 15.1604L14.9766 12.4992Z" fill="#96A0AF"/>
<path opacity="0.5" d="M9.14062 15.1604L14.9767 12.4992V18.6153L9.14062 15.1604Z" fill="#96A0AF"/>
<path opacity="0.25" d="M14.9766 12.4992L20.8126 15.1604L14.9766 18.6153V12.4992Z" fill="#96A0AF"/>
<path d="M9.14062 16.2809L14.9767 24.498V19.7358L9.14062 16.2809Z" fill="#96A0AF"/>
<path opacity="0.6" d="M14.9766 19.7358V24.498L20.8593 16.2809L14.9766 19.7358Z" fill="#96A0AF"/>
<path d="M0 0H30V30H0V0Z" fill="#1D2337"/>
<path opacity="0.6" d="M14.9986 12.5836L9.14062 15.1657L14.9995 18.5221L20.8538 15.1657L14.9986 12.5836Z" fill="#010101"/>
<path d="M9.14062 15.1656L14.9995 18.5221V5.74219L9.14062 15.1656Z" fill="#5B627B"/>
<path opacity="0.71" d="M14.9985 5.74219V18.5221L20.8546 15.1656L14.9976 5.74219H14.9985Z" fill="#5B627B"/>
<path opacity="0.45" d="M9.14062 16.2425L14.9995 24.245V19.598L9.14062 16.2425Z" fill="#5B627B"/>
<path opacity="0.8" d="M14.9985 19.5999V24.245L20.8593 16.2425L14.9985 19.599V19.5999Z" fill="#5B627B"/>
</g>
<defs>
<clipPath id="clip0_1_824">
<rect width="30" height="30" rx="15" fill="white"/>
</clipPath>
</defs>
</svg>
