<svg width="30" height="30" viewBox="0 0 30 30" fill="none" xmlns="http://www.w3.org/2000/svg">
<g id="Icon/in-house game">
<path id="Vector" d="M17 2.49965V2.4999V11.2499V11.7499H17.5H22.5H22.5002C22.6321 11.7499 22.7618 11.7846 22.876 11.8507C22.9902 11.9168 23.085 12.0119 23.1507 12.1263C23.2164 12.2407 23.2508 12.3705 23.2504 12.5024C23.2499 12.6344 23.2147 12.7639 23.1482 12.8779L23.1481 12.878L14.3981 27.878L14.398 27.8782C14.315 28.0206 14.1874 28.1317 14.0348 28.1944C13.8823 28.257 13.7134 28.2676 13.5542 28.2245C13.3951 28.1815 13.2545 28.0872 13.1544 27.9563C13.0542 27.8253 12.9999 27.665 13 27.5002V27.4999V18.7499V18.2499H12.5H7.5H7.49986C7.36789 18.2499 7.23825 18.2152 7.12403 18.1491C7.0098 18.083 6.91504 17.9879 6.8493 17.8735C6.78357 17.7591 6.74919 17.6293 6.74964 17.4974C6.75009 17.3654 6.78535 17.2359 6.85186 17.1219L6.85189 17.1218L15.6019 2.12184L15.602 2.12165C15.685 1.9792 15.8127 1.86807 15.9652 1.80546C16.1177 1.74284 16.2866 1.73223 16.4458 1.77527C16.6049 1.8183 16.7455 1.91258 16.8457 2.04352C16.9458 2.17447 17.0001 2.33478 17 2.49965Z" fill="url(#paint0_linear_1_3215)" stroke="url(#paint1_linear_1_3215)"/>
</g>
<defs>
<linearGradient id="paint0_linear_1_3215" x1="15" y1="1.24927" x2="15" y2="28.7505" gradientUnits="userSpaceOnUse">
<stop stop-color="#BDC8DD"/>
<stop offset="1" stop-color="#67728A"/>
</linearGradient>
<linearGradient id="paint1_linear_1_3215" x1="15" y1="1.24927" x2="15" y2="17.75" gradientUnits="userSpaceOnUse">
<stop stop-color="white"/>
<stop offset="1" stop-color="#A8B3C9" stop-opacity="0"/>
</linearGradient>
</defs>
</svg>
