<svg width="24" height="25" viewBox="0 0 24 25" fill="none" xmlns="http://www.w3.org/2000/svg">
<path d="M15.6544 13.3637L13.9543 7.00007L15.1817 5.18188L18.3635 5.63643L19.7272 7.45461L18.3635 12.4546L15.6544 13.3637Z" fill="#4B5568"/>
<path d="M20.7111 3.35376L13.1693 2.02395C12.3211 1.87438 11.5122 2.44079 11.3626 3.28903L11.2913 3.69384C12.3819 3.82821 13.3034 4.61391 13.5935 5.69653L14.0544 7.41665C14.2984 7.31083 14.5751 7.2727 14.8566 7.32235C15.3909 7.41657 15.8008 7.80106 15.9534 8.28493C16.2624 7.88247 16.7791 7.66134 17.3134 7.75555C18.078 7.8904 18.5886 8.61958 18.4538 9.38423C18.1608 11.0457 16.3779 12.3811 15.5317 12.9304L16.8236 17.7516C16.8928 18.01 16.9217 18.2698 16.9153 18.5247L18.0022 18.7163C18.8504 18.8659 19.6594 18.2995 19.8089 17.4512L21.9761 5.16056C22.1257 4.31224 21.5593 3.50333 20.7111 3.35376Z" fill="url(#paint0_linear_1_3163)"/>
<path d="M5.18188 14.2727V10.6363L8.81825 8.81812L9.72734 9.72721L12.9092 12.4545L12.0001 17.4545L7.90916 17.909L5.18188 14.2727Z" fill="#4B5568"/>
<path d="M12.4636 5.99935C12.2769 5.30255 11.6467 4.84298 10.9581 4.84302C10.8245 4.84302 10.6887 4.86032 10.5535 4.89653L3.15634 6.87857C2.32435 7.1015 1.8306 7.95669 2.05353 8.78868L5.28365 20.8437C5.47037 21.5405 6.10048 22.0001 6.78912 22.0001C6.92271 22.0001 7.05857 21.9828 7.19373 21.9465L14.5908 19.9645C15.4228 19.7415 15.9166 18.8863 15.6937 18.0544L12.4636 5.99935ZM6.70744 14.2396C6.58201 14.1293 6.53517 13.9544 6.58861 13.7961L7.7197 10.447C7.81431 10.1668 8.16361 10.0733 8.38564 10.2686L11.0398 12.6035C11.1652 12.7138 11.212 12.8887 11.1586 13.047L10.0275 16.3961C9.93291 16.6763 9.58361 16.7699 9.36158 16.5745L6.70744 14.2396Z" fill="url(#paint1_linear_1_3163)"/>
<defs>
<linearGradient id="paint0_linear_1_3163" x1="16.6457" y1="2" x2="16.6457" y2="18.7402" gradientUnits="userSpaceOnUse">
<stop stop-color="#BDC8DD"/>
<stop offset="1" stop-color="#67728A"/>
</linearGradient>
<linearGradient id="paint1_linear_1_3163" x1="8.87359" y1="4.84302" x2="8.87359" y2="22.0001" gradientUnits="userSpaceOnUse">
<stop stop-color="#BDC8DD"/>
<stop offset="1" stop-color="#67728A"/>
</linearGradient>
</defs>
</svg>
