<svg width="234" height="80" viewBox="0 0 234 80" fill="none" xmlns="http://www.w3.org/2000/svg">
<path d="M59.6391 10C59.6391 12.0054 59.5581 14.0108 59.3961 15.9757C59.2341 17.9811 58.9911 19.9865 58.6873 21.9514C58.3633 23.977 57.9583 25.9622 57.4723 27.9271C56.9862 29.9527 56.399 31.9379 55.7509 33.9028H16.5248C15.735 31.9581 15.0262 29.973 14.4389 27.9271H51.4375C51.964 25.9622 52.4095 23.977 52.7538 21.9514C53.0981 19.9865 53.3613 18.0014 53.5233 15.9757H6.13604C6.3183 18.0014 6.56132 19.9865 6.90558 21.9514C7.24985 23.977 7.69537 25.9622 8.2219 27.9271C8.76867 29.9527 9.39645 31.9581 10.1052 33.9028C10.6723 35.422 11.2798 36.921 11.9481 38.3997C12.1708 38.8859 12.3936 39.3923 12.6366 39.8785C13.6087 41.9244 14.7022 43.9298 15.8768 45.8542C16.5248 46.948 17.2133 48.0014 17.9221 49.0344C18.5701 49.9865 19.2384 50.9183 19.927 51.8298C20.4332 52.4983 20.9395 53.1465 21.466 53.7947C22.2356 54.7468 23.0456 55.6989 23.8759 56.6104C24.2404 57.0155 24.6252 57.4207 25.01 57.8258C25.1517 57.9676 25.2935 58.1296 25.4352 58.2714C26.8325 59.7097 28.2906 61.0871 29.8094 62.4038L29.8499 62.4443V62.3633C31.3485 61.0668 32.7863 59.7097 34.1634 58.2917C34.3051 58.1499 34.4469 57.9879 34.5887 57.8461C34.9937 57.4207 35.4189 56.975 35.8037 56.5294C36.5935 55.6583 37.3833 54.7468 38.1326 53.8352C38.6591 53.187 39.1856 52.5388 39.6717 51.8704C40.4007 50.9183 41.1095 49.946 41.7778 48.9332C42.446 47.9406 43.1143 46.9278 43.7421 45.8947H22.9849C21.6685 43.9703 20.4332 41.9851 19.3397 39.919H53.4828C52.5918 41.9649 51.6197 43.95 50.5667 45.8947C49.6959 47.4949 48.7846 49.0344 47.8125 50.5537C47.529 50.9993 47.2455 51.4247 46.962 51.8704C45.6862 53.7745 44.3091 55.6178 42.8713 57.4004C42.7498 57.5422 42.6283 57.7043 42.5068 57.8461L41.8385 58.6361C40.8867 59.7502 39.9147 60.844 38.8819 61.9176C38.2743 62.5658 37.6263 63.214 36.9985 63.842C36.6138 64.2066 36.2492 64.5712 35.8645 64.9156C35.4189 65.341 34.9734 65.7461 34.5279 66.1512C33.0901 67.4274 31.6118 68.6428 30.0929 69.8177L29.8499 70L29.6069 69.8177C28.0678 68.6428 26.5895 67.4274 25.172 66.1512C24.7467 65.7866 24.3417 65.4018 23.9164 65.0169C23.4911 64.632 23.0861 64.2471 22.6811 63.842C22.0331 63.214 21.4053 62.5658 20.7775 61.9176C19.8055 60.8845 18.8537 59.8312 17.9221 58.7576C17.6588 58.4538 17.4158 58.1499 17.1526 57.8461C17.0311 57.7043 16.9096 57.5422 16.7881 57.4004C15.3502 55.6178 13.9732 53.7745 12.6974 51.8704C12.4341 51.4855 12.1911 51.1006 11.9278 50.7157C10.9153 49.156 9.96348 47.5354 9.07244 45.8947C8.01939 43.95 7.04734 41.9649 6.1563 39.919C6.09554 39.7569 6.01454 39.6151 5.95379 39.4531C5.18425 37.6502 4.49572 35.8069 3.86794 33.9433C3.2199 31.9784 2.63263 29.9932 2.1466 27.9676C1.66058 26.0027 1.25556 24.0176 0.931545 21.9919C0.62778 20.027 0.384768 18.0216 0.222761 16.0162C0.0810039 13.9905 0 12.0054 0 10H59.6391ZM81.3482 26.813C82.9682 26.813 84.3251 27.3599 85.4389 28.4537C86.5527 29.5476 87.0994 30.8845 87.0994 32.4646C87.0994 34.0446 86.5527 35.4018 85.4389 36.4754C84.3251 37.5692 82.9682 38.1161 81.3482 38.1161H78.3915V43.6462H75.0704V26.813H81.3482ZM81.3482 35.0169C82.0569 35.0169 82.6442 34.7738 83.11 34.2876C83.5758 33.8015 83.7985 33.1938 83.7985 32.4646C83.7985 31.7353 83.5758 31.1074 83.11 30.6415C82.6442 30.1553 82.0569 29.9122 81.3482 29.9122H78.3915V35.0169H81.3482ZM95.5441 43.9905C93.6608 43.9905 92.1217 43.4639 90.9269 42.4105C89.7321 41.3572 89.1245 39.9392 89.1245 38.1567V26.813H92.4254V37.8731C92.4254 38.7643 92.6685 39.4531 93.1747 39.9595C93.681 40.4659 94.4708 40.7292 95.5441 40.7292C96.6174 40.7292 97.4072 40.4659 97.9135 39.9595C98.4197 39.4531 98.6627 38.7441 98.6627 37.8731V26.813H101.984V38.1364C101.984 39.919 101.376 41.3369 100.182 42.3903C98.9868 43.4639 97.4274 43.9905 95.5441 43.9905ZM110.732 43.9905C109.072 43.9905 107.654 43.6259 106.52 42.8764C105.386 42.1269 104.576 41.1141 104.11 39.8379L106.945 38.1769C107.593 39.8987 108.889 40.7495 110.813 40.7495C111.745 40.7495 112.433 40.5874 112.859 40.2431C113.284 39.8987 113.507 39.4733 113.507 38.9669C113.507 38.3795 113.243 37.9136 112.717 37.5895C112.19 37.2654 111.239 36.9007 109.882 36.5159C109.132 36.293 108.484 36.0702 107.978 35.8474C107.452 35.6246 106.945 35.3207 106.419 34.9359C105.892 34.551 105.508 34.0851 105.224 33.4976C104.961 32.9102 104.819 32.2417 104.819 31.472C104.819 29.9527 105.366 28.7373 106.439 27.8258C107.512 26.9142 108.829 26.4686 110.348 26.4686C111.704 26.4686 112.899 26.7927 113.952 27.4612C114.985 28.1296 115.795 29.0614 116.362 30.2363L113.567 31.8569C112.899 30.4186 111.826 29.6894 110.348 29.6894C109.659 29.6894 109.112 29.8515 108.727 30.1553C108.343 30.4592 108.14 30.8643 108.14 31.3707C108.14 31.8974 108.363 32.3228 108.808 32.6671C109.254 32.9912 110.105 33.3558 111.34 33.7407C111.846 33.9028 112.251 34.0243 112.514 34.1053C112.778 34.1864 113.142 34.3282 113.588 34.5105C114.053 34.6928 114.398 34.8751 114.641 35.0371C114.884 35.1992 115.167 35.422 115.491 35.6853C115.815 35.9487 116.058 36.2323 116.22 36.5361C116.382 36.8197 116.524 37.1641 116.646 37.5895C116.767 37.9946 116.828 38.4402 116.828 38.9264C116.828 40.4862 116.261 41.7218 115.127 42.6334C114.013 43.5246 112.535 43.9905 110.732 43.9905ZM128.452 26.813H131.753V43.6462H128.452V36.6779H122.194V43.6462H118.873V26.813H122.194V33.4976H128.452V26.813ZM157.411 34.6118V35.9082C157.411 38.3187 156.641 40.2633 155.102 41.7623C153.563 43.2613 151.579 43.9905 149.128 43.9905C146.536 43.9905 144.369 43.1398 142.668 41.4585C140.967 39.7569 140.116 37.711 140.116 35.26C140.116 32.8089 140.967 30.7225 142.648 29.0209C144.349 27.3194 146.435 26.4686 148.946 26.4686C150.525 26.4686 151.943 26.8332 153.259 27.5422C154.555 28.2512 155.568 29.2032 156.297 30.3984L153.462 32.0392C153.057 31.3504 152.449 30.7833 151.639 30.3579C150.829 29.9325 149.918 29.7097 148.926 29.7097C147.326 29.7097 146.01 30.2363 144.977 31.2897C143.944 32.343 143.417 33.6597 143.417 35.2802C143.417 36.8602 143.944 38.1769 144.997 39.21C146.05 40.2431 147.447 40.7698 149.169 40.7698C150.444 40.7698 151.518 40.4862 152.348 39.919C153.199 39.3518 153.766 38.5618 154.069 37.5692H148.966V34.632H157.411V34.6118ZM170.23 43.6462L169.156 40.6077H162.231L161.218 43.6462H157.634L163.527 26.813H167.638L173.571 43.6462H170.23ZM163.324 37.5084H168.063L165.633 30.6212L163.324 37.5084ZM191.716 26.813V43.6462H188.415V32.7279L183.656 40.5469H183.271L178.553 32.7684V43.6462H175.232V26.813H178.654L183.474 34.7535L188.273 26.813H191.716ZM194.835 26.813H198.156V43.6462H194.835V26.813ZM211.015 26.813H214.336V43.6462H211.825L204.596 33.3558V43.6462H201.274V26.813H203.806L211.015 37.0628V26.813ZM234 34.6118V35.9082C234 38.3187 233.23 40.2633 231.691 41.7623C230.152 43.2613 228.168 43.9905 225.717 43.9905C223.125 43.9905 220.958 43.1398 219.257 41.4585C217.556 39.7569 216.706 37.711 216.706 35.26C216.706 32.8089 217.556 30.7225 219.237 29.0209C220.938 27.3194 223.024 26.4686 225.535 26.4686C227.115 26.4686 228.532 26.8332 229.849 27.5422C231.145 28.2512 232.157 29.2032 232.886 30.3984L230.051 32.0392C229.646 31.3504 229.039 30.7833 228.228 30.3579C227.418 29.9325 226.507 29.7097 225.515 29.7097C223.915 29.7097 222.599 30.2363 221.566 31.2897C220.533 32.343 220.007 33.6597 220.007 35.2802C220.007 36.8602 220.533 38.1769 221.586 39.21C222.639 40.2431 224.037 40.7698 225.758 40.7698C227.034 40.7698 228.107 40.4862 228.937 39.919C229.788 39.3518 230.355 38.5618 230.659 37.5692H225.555V34.632H234V34.6118Z" fill="white"/>
</svg>
